<svg xmlns="http://www.w3.org/2000/svg" width="594.712890625" height="527.6627197265625" viewBox="-428.51873779296875 -296.052978515625 594.712890625 527.6627197265625"><title>Neo4j Graph Visualization</title><desc>Created using Neo4j (http://www.neo4j.com/)</desc><g class="layer relationships"><g class="relationship" transform="translate(-99.53592346365755 -200.18450947735113) rotate(424.7939766678501)"><path class="b-outline" fill="#A5ABB6" stroke="none" d="M 24.018736134675446,-6.953439040707552 L 24.277555179777966,-5.987513214418485 A 632.1309141646433 632.1309141646433 0 0 1 149.2097150776957,-26.34261460999153 L 149.1485325618286,-27.340741205044537 A 633.1309141646433 633.1309141646433 0 0 0 24.018736134675446,-6.953439040707552 Z M 220.65055419666348,-27.678451878795613 L 220.59880268887895,-26.67979188588413 A 632.1309141646433 632.1309141646433 0 0 1 345.7176626076913,-7.505704627306489 L 344.968612445894,-4.600722036117444 L 352.6207970140986,-6.24208468164426 L 346.7163961567544,-11.379014748891882 L 345.9673459949571,-8.474032157702837 A 633.1309141646433 633.1309141646433 0 0 0 220.65055419666348,-27.678451878795613"/><text text-anchor="middle" pointer-events="none" font-size="8px" fill="#000000" x="184.89713366148902" y="-25.01979566971761" font-family="Helvetica Neue, Helvetica, Arial, sans-serif">PATIENT_COUNT</text></g><g class="relationship" transform="translate(-99.53592346365755 -200.18450947735113) rotate(379.5012798269521)"><path class="b-outline" fill="#A5ABB6" stroke="none" d="M 24.018736134675446,-6.953439040707552 L 24.277555179777966,-5.987513214418485 A 255.18892523216758 255.18892523216758 0 0 1 52.356054919614934,-11.842356221713572 L 52.20726611863172,-12.831225218447685 A 256.18892523216755 256.18892523216755 0 0 0 24.018736134675446,-6.953439040707552 Z M 123.59513394813794,-13.513396028413212 L 123.46526953347255,-12.52186426704418 A 255.18892523216758 255.18892523216758 0 0 1 151.65052745145152,-7.204668542124867 L 150.92958842637566,-4.2925821900187575 L 158.56555211054507,-6.007825208965537 L 152.611779484886,-11.087450344933012 L 151.89084045981014,-8.175363992826902 A 256.18892523216755 256.18892523216755 0 0 0 123.59513394813794,-13.513396028413212"/><text text-anchor="middle" pointer-events="none" font-size="8px" fill="#000000" x="87.88209905130037" y="-12.171191790052177" font-family="Helvetica Neue, Helvetica, Arial, sans-serif">PATIENT_COUNT</text></g><g class="relationship" transform="translate(-99.53592346365755 -200.18450947735113) rotate(491.72270741456697)"><path class="b-outline" fill="#A5ABB6" stroke="none" d="M 24.018736134675446,-6.953439040707552 L 24.277555179777966,-5.987513214418485 A 595.3467018255309 595.3467018255309 0 0 1 139.72134638590774,-25.017991028455185 L 139.65643752935944,-26.0158822251002 A 596.3467018255309 596.3467018255309 0 0 0 24.018736134675446,-6.953439040707552 Z M 211.15701714808068,-26.371170063806176 L 211.10202833537073,-25.37268309319677 A 595.3467018255309 595.3467018255309 0 0 1 326.729239794483,-7.490401805151766 L 325.98161852125673,-4.585051149582021 L 333.63299486968344,-6.230177276885451 L 327.7260681587847,-11.364202679244759 L 326.9784468855584,-8.458852023675014 A 596.3467018255309 596.3467018255309 0 0 0 211.15701714808068,-26.371170063806176"/><text text-anchor="middle" pointer-events="none" font-size="8px" fill="#000000" x="175.40388218661894" y="-23.7661042126349" transform="rotate(180 175.40388218661894 -26.7661042126349)" font-family="Helvetica Neue, Helvetica, Arial, sans-serif">PATIENT_COUNT</text></g><g class="relationship" transform="translate(-99.53592346365755 -200.18450947735113) rotate(518.9043735873677)"><path class="b-outline" fill="#A5ABB6" stroke="none" d="M 24.018736134675446,-6.953439040707552 L 24.277555179777966,-5.987513214418485 A 380.91874142104973 380.91874142104973 0 0 1 84.52048795342715,-17.031989435810488 L 84.41982057224357,-18.026909572487625 A 381.91874142104973 381.91874142104973 0 0 0 24.018736134675446,-6.953439040707552 Z M 155.8913755640692,-18.536486278191035 L 155.804904825961,-17.540231887259154 A 380.91874142104973 380.91874142104973 0 0 1 216.19919459606473,-7.355872931485397 L 215.46413534837438,-4.447318668215602 L 223.10833108497596,-6.125493730752891 L 217.17927359298517,-11.23394528251179 L 216.44421434529482,-8.325391019241996 A 381.91874142104973 381.91874142104973 0 0 0 155.8913755640692,-18.536486278191035"/><text text-anchor="middle" pointer-events="none" font-size="8px" fill="#000000" x="120.14721620539844" y="-16.457310464793807" transform="rotate(180 120.14721620539844 -19.457310464793807)" font-family="Helvetica Neue, Helvetica, Arial, sans-serif">PATIENT_COUNT</text></g><g class="relationship" transform="translate(-99.53592346365755 -200.18450947735113) rotate(539.2028267071598)"><path class="b-outline" fill="#A5ABB6" stroke="none" d="M 6.953439040707552 24.018736134675446 L 17.306200844808384 62.65576918623819 A 17.916697508022974 17.916697508022974 0 1 1 -17.306200844808384 62.65576918623819 L -8.765172356425198 30.780216918698923 L -4.901469051268926 31.815493099109005 L -6.4704761275630185 24.148145657226706 L -11.662949835292403 30.00375978339136 L -7.79924653013613 31.039035963801442 L -16.340275018519314 62.91458823134071 A 16.916697508022974 16.916697508022974 0 1 0 16.340275018519314 62.91458823134071 L 5.987513214418485 24.277555179777966 Z"/><text text-anchor="middle" pointer-events="none" font-size="8px" fill="#000000" x="0" y="94.20964923467838" transform="rotate(180 0 91.20964923467838)" font-family="Helvetica Neue, Helvetica, Arial, sans-serif">PATIENT_…</text></g><g class="relationship" transform="translate(60.94589866717901 140.76368146696882) rotate(244.79397666785007)"><path class="b-outline" fill="#A5ABB6" stroke="none" d="M 24.018736134675446,-6.953439040707552 L 24.277555179777966,-5.987513214418485 A 632.1309141646433 632.1309141646433 0 0 1 149.2097150776957,-26.34261460999153 L 149.1485325618286,-27.340741205044537 A 633.1309141646433 633.1309141646433 0 0 0 24.018736134675446,-6.953439040707552 Z M 220.65055419666348,-27.678451878795613 L 220.59880268887895,-26.67979188588413 A 632.1309141646433 632.1309141646433 0 0 1 345.7176626076913,-7.505704627306489 L 344.968612445894,-4.600722036117444 L 352.6207970140986,-6.24208468164426 L 346.7163961567544,-11.379014748891882 L 345.9673459949571,-8.474032157702837 A 633.1309141646433 633.1309141646433 0 0 0 220.65055419666348,-27.678451878795613"/><text text-anchor="middle" pointer-events="none" font-size="8px" fill="#000000" x="184.89713366148902" y="-25.01979566971761" transform="rotate(180 184.89713366148902 -28.01979566971761)" font-family="Helvetica Neue, Helvetica, Arial, sans-serif">PATIENT_COUNT</text></g><g class="relationship" transform="translate(60.94589866717901 140.76368146696882) rotate(212.77699659773816)"><path class="b-outline" fill="#A5ABB6" stroke="none" d="M 24.018736134675446,-6.953439040707552 L 24.277555179777966,-5.987513214418485 A 803.5119087778494 803.5119087778494 0 0 1 193.45333037101489,-32.42974348063649 L 193.4050567743906,-33.42857763096822 A 804.5119087778494 804.5119087778494 0 0 0 24.018736134675446,-6.953439040707552 Z M 264.9098028159623,-33.70298320796553 L 264.8691967511901,-32.70380797433347 A 803.5119087778494 803.5119087778494 0 0 1 434.2429347417981,-7.56079041286119 L 433.48874108618367,-4.657138930704466 L 441.1438204760995,-6.28494713012029 L 435.2485262826173,-11.432325722403487 L 434.4943326270029,-8.528674240246763 A 804.5119087778494 804.5119087778494 0 0 0 264.9098028159623,-33.70298320796553"/><text text-anchor="middle" pointer-events="none" font-size="8px" fill="#000000" x="229.1562984102983" y="-30.860597271487563" transform="rotate(180 229.1562984102983 -33.86059727148756)" font-family="Helvetica Neue, Helvetica, Arial, sans-serif">PATIENT_COUNT</text></g><g class="relationship" transform="translate(60.94589866717901 140.76368146696882) rotate(272.42674217431056)"><path class="b-outline" fill="#A5ABB6" stroke="none" d="M 24.018736134675446,-6.953439040707552 L 24.277555179777966,-5.987513214418485 A 444.6841189513239 444.6841189513239 0 0 1 100.90852261777391,-19.473311992409435 L 100.8220303191689,-20.46956451174475 A 445.6841189513239 445.6841189513239 0 0 0 24.018736134675446,-6.953439040707552 Z M 172.3084083289368,-20.92094976871084 L 172.2345036670713,-19.923684457494915 A 444.6841189513239 444.6841189513239 0 0 1 249.02966029183443,-7.4066617227649445 L 248.28985838707052,-4.499310154463018 L 255.93678093533293,-6.165015873032773 L 250.01606283151966,-11.283130480500846 L 249.27626092675575,-8.37577891219892 A 445.6841189513239 445.6841189513239 0 0 0 172.3084083289368,-20.92094976871084"/><text text-anchor="middle" pointer-events="none" font-size="8px" fill="#000000" x="136.559311519584" y="-18.630882610822198" font-family="Helvetica Neue, Helvetica, Arial, sans-serif">PATIENT_COUNT</text></g><g class="relationship" transform="translate(60.94589866717901 140.76368146696882) rotate(190.4971454329792)"><path class="b-outline" fill="#A5ABB6" stroke="none" d="M 24.018736134675446,-6.953439040707552 L 24.277555179777966,-5.987513214418485 A 687.5120452223765 687.5120452223765 0 0 1 163.50113807465232,-28.322849799020105 L 163.44482251128858,-29.321262818427954 A 688.5120452223765 688.5120452223765 0 0 0 24.018736134675446,-6.953439040707552 Z M 234.9482840759399,-29.63555319167949 L 234.900747481508,-28.636683694602993 A 687.5120452223765 687.5120452223765 0 0 1 374.3152950887296,-7.526088963351592 L 373.564341574254,-4.621597817023761 L 381.2176000159071,-6.257945953963185 L 375.3165664413637,-11.398743825122033 L 374.5656129268881,-8.494252678794203 A 688.5120452223765 688.5120452223765 0 0 0 234.9482840759399,-29.63555319167949"/><text text-anchor="middle" pointer-events="none" font-size="8px" fill="#000000" x="199.19466824065535" y="-26.90727195783495" transform="rotate(180 199.19466824065535 -29.90727195783495)" font-family="Helvetica Neue, Helvetica, Arial, sans-serif">PATIENT_COUNT</text></g><g class="relationship" transform="translate(60.94589866717901 140.76368146696882) rotate(321.4619438036449)"><path class="b-outline" fill="#A5ABB6" stroke="none" d="M 6.953439040707552 24.018736134675446 L 17.306200844808384 62.65576918623819 A 17.916697508022974 17.916697508022974 0 1 1 -17.306200844808384 62.65576918623819 L -8.765172356425198 30.780216918698923 L -4.901469051268926 31.815493099109005 L -6.4704761275630185 24.148145657226706 L -11.662949835292403 30.00375978339136 L -7.79924653013613 31.039035963801442 L -16.340275018519314 62.91458823134071 A 16.916697508022974 16.916697508022974 0 1 0 16.340275018519314 62.91458823134071 L 5.987513214418485 24.277555179777966 Z"/><text text-anchor="middle" pointer-events="none" font-size="8px" fill="#000000" x="0" y="94.20964923467838" font-family="Helvetica Neue, Helvetica, Arial, sans-serif">PATIENT_…</text></g><g class="relationship" transform="translate(72.8086268880231 -139.14977084396568) rotate(199.5012798269521)"><path class="b-outline" fill="#A5ABB6" stroke="none" d="M 24.018736134675446,-6.953439040707552 L 24.277555179777966,-5.987513214418485 A 255.18892523216758 255.18892523216758 0 0 1 52.356054919614934,-11.842356221713572 L 52.20726611863172,-12.831225218447685 A 256.18892523216755 256.18892523216755 0 0 0 24.018736134675446,-6.953439040707552 Z M 123.59513394813794,-13.513396028413212 L 123.46526953347255,-12.52186426704418 A 255.18892523216758 255.18892523216758 0 0 1 151.65052745145152,-7.204668542124867 L 150.92958842637566,-4.2925821900187575 L 158.56555211054507,-6.007825208965537 L 152.611779484886,-11.087450344933012 L 151.89084045981014,-8.175363992826902 A 256.18892523216755 256.18892523216755 0 0 0 123.59513394813794,-13.513396028413212"/><text text-anchor="middle" pointer-events="none" font-size="8px" fill="#000000" x="87.88209905130037" y="-12.171191790052177" transform="rotate(180 87.88209905130037 -15.171191790052177)" font-family="Helvetica Neue, Helvetica, Arial, sans-serif">PATIENT_COUNT</text></g><g class="relationship" transform="translate(72.8086268880231 -139.14977084396568) rotate(452.42674217431056)"><path class="b-outline" fill="#A5ABB6" stroke="none" d="M 24.018736134675446,-6.953439040707552 L 24.277555179777966,-5.987513214418485 A 444.6841189513239 444.6841189513239 0 0 1 100.90852261777391,-19.473311992409435 L 100.8220303191689,-20.46956451174475 A 445.6841189513239 445.6841189513239 0 0 0 24.018736134675446,-6.953439040707552 Z M 172.3084083289368,-20.92094976871084 L 172.2345036670713,-19.923684457494915 A 444.6841189513239 444.6841189513239 0 0 1 249.02966029183443,-7.4066617227649445 L 248.28985838707052,-4.499310154463018 L 255.93678093533293,-6.165015873032773 L 250.01606283151966,-11.283130480500846 L 249.27626092675575,-8.37577891219892 A 445.6841189513239 445.6841189513239 0 0 0 172.3084083289368,-20.92094976871084"/><text text-anchor="middle" pointer-events="none" font-size="8px" fill="#000000" x="136.559311519584" y="-18.630882610822198" transform="rotate(180 136.559311519584 -21.630882610822198)" font-family="Helvetica Neue, Helvetica, Arial, sans-serif">PATIENT_COUNT</text></g><g class="relationship" transform="translate(72.8086268880231 -139.14977084396568) rotate(513.3455295396134)"><path class="b-outline" fill="#A5ABB6" stroke="none" d="M 24.018736134675446,-6.953439040707552 L 24.277555179777966,-5.987513214418485 A 791.8414889000851 791.8414889000851 0 0 1 190.43904438358842,-32.01856666430763 L 190.39006719639943,-33.017366561752056 A 792.8414889000851 792.8414889000851 0 0 0 24.018736134675446,-6.953439040707552 Z M 261.8947550907288,-33.295322025011956 L 261.8535444044331,-32.296171546187566 A 791.8414889000851 791.8414889000851 0 0 1 428.2123866289565,-7.557702477647872 L 427.4584812973633,-4.653976121567587 L 435.1133990150761,-6.2825444299437 L 429.2175937377475,-11.429337619088251 L 428.4636884061543,-8.525611263007967 A 792.8414889000851 792.8414889000851 0 0 0 261.8947550907288,-33.295322025011956"/><text text-anchor="middle" pointer-events="none" font-size="8px" fill="#000000" x="226.14121960111532" y="-30.462871353199148" transform="rotate(180 226.14121960111532 -33.46287135319915)" font-family="Helvetica Neue, Helvetica, Arial, sans-serif">PATIENT_COUNT</text></g><g class="relationship" transform="translate(72.8086268880231 -139.14977084396568) rotate(536.0278583460033)"><path class="b-outline" fill="#A5ABB6" stroke="none" d="M 24.018736134675446,-6.953439040707552 L 24.277555179777966,-5.987513214418485 A 684.9227047098059 684.9227047098059 0 0 1 162.83280182180974,-28.23059265755637 L 162.7762760365003,-29.228993797176713 A 685.9227047098059 685.9227047098059 0 0 0 24.018736134675446,-6.953439040707552 Z M 234.2796857571965,-29.544306789249163 L 234.23196742107692,-28.545445957902757 A 684.9227047098059 684.9227047098059 0 0 1 372.97799501939846,-7.525199031812644 L 372.2271246003332,-4.620686402511003 L 379.88033622427986,-6.2572534922105945 L 373.9791555781522,-11.397882537548165 L 373.2282851590869,-8.493369908246525 A 685.9227047098059 685.9227047098059 0 0 0 234.2796857571965,-29.544306789249163"/><text text-anchor="middle" pointer-events="none" font-size="8px" fill="#000000" x="198.52607423113608" y="-26.819024166331815" transform="rotate(180 198.52607423113608 -29.819024166331815)" font-family="Helvetica Neue, Helvetica, Arial, sans-serif">PATIENT_COUNT</text></g><g class="relationship" transform="translate(72.8086268880231 -139.14977084396568) rotate(235.96401100063133)"><path class="b-outline" fill="#A5ABB6" stroke="none" d="M 6.953439040707552 24.018736134675446 L 17.306200844808384 62.65576918623819 A 17.916697508022974 17.916697508022974 0 1 1 -17.306200844808384 62.65576918623819 L -8.765172356425198 30.780216918698923 L -4.901469051268926 31.815493099109005 L -6.4704761275630185 24.148145657226706 L -11.662949835292403 30.00375978339136 L -7.79924653013613 31.039035963801442 L -16.340275018519314 62.91458823134071 A 16.916697508022974 16.916697508022974 0 1 0 16.340275018519314 62.91458823134071 L 5.987513214418485 24.277555179777966 Z"/><text text-anchor="middle" pointer-events="none" font-size="8px" fill="#000000" x="0" y="94.20964923467838" transform="rotate(180 0 91.20964923467838)" font-family="Helvetica Neue, Helvetica, Arial, sans-serif">PATIENT_…</text></g><g class="relationship" transform="translate(-330.3053091327472 -111.15825217203506) rotate(392.77699659773816)"><path class="b-outline" fill="#A5ABB6" stroke="none" d="M 24.018736134675446,-6.953439040707552 L 24.277555179777966,-5.987513214418485 A 803.5119087778494 803.5119087778494 0 0 1 193.45333037101489,-32.42974348063649 L 193.4050567743906,-33.42857763096822 A 804.5119087778494 804.5119087778494 0 0 0 24.018736134675446,-6.953439040707552 Z M 264.9098028159623,-33.70298320796553 L 264.8691967511901,-32.70380797433347 A 803.5119087778494 803.5119087778494 0 0 1 434.2429347417981,-7.56079041286119 L 433.48874108618367,-4.657138930704466 L 441.1438204760995,-6.28494713012029 L 435.2485262826173,-11.432325722403487 L 434.4943326270029,-8.528674240246763 A 804.5119087778494 804.5119087778494 0 0 0 264.9098028159623,-33.70298320796553"/><text text-anchor="middle" pointer-events="none" font-size="8px" fill="#000000" x="229.1562984102983" y="-30.860597271487563" font-family="Helvetica Neue, Helvetica, Arial, sans-serif">PATIENT_COUNT</text></g><g class="relationship" transform="translate(-330.3053091327472 -111.15825217203506) rotate(338.9043735873677)"><path class="b-outline" fill="#A5ABB6" stroke="none" d="M 24.018736134675446,-6.953439040707552 L 24.277555179777966,-5.987513214418485 A 380.91874142104973 380.91874142104973 0 0 1 84.52048795342715,-17.031989435810488 L 84.41982057224357,-18.026909572487625 A 381.91874142104973 381.91874142104973 0 0 0 24.018736134675446,-6.953439040707552 Z M 155.8913755640692,-18.536486278191035 L 155.804904825961,-17.540231887259154 A 380.91874142104973 380.91874142104973 0 0 1 216.19919459606473,-7.355872931485397 L 215.46413534837438,-4.447318668215602 L 223.10833108497596,-6.125493730752891 L 217.17927359298517,-11.23394528251179 L 216.44421434529482,-8.325391019241996 A 381.91874142104973 381.91874142104973 0 0 0 155.8913755640692,-18.536486278191035"/><text text-anchor="middle" pointer-events="none" font-size="8px" fill="#000000" x="120.14721620539844" y="-16.457310464793807" font-family="Helvetica Neue, Helvetica, Arial, sans-serif">PATIENT_COUNT</text></g><g class="relationship" transform="translate(-330.3053091327472 -111.15825217203506) rotate(452.37508459240655)"><path class="b-outline" fill="#A5ABB6" stroke="none" d="M 24.018736134675446,-6.953439040707552 L 24.277555179777966,-5.987513214418485 A 246.1539194531124 246.1539194531124 0 0 1 50.05797580041703,-11.435292145109997 L 49.903889682898665,-12.423349566714677 A 247.1539194531124 247.1539194531124 0 0 0 24.018736134675446,-6.953439040707552 Z M 121.27932906475164,-13.122437912410192 L 121.14462575283352,-12.131551936246296 A 246.1539194531124 246.1539194531124 0 0 1 147.02680702852817,-7.189783521312325 L 146.3072581024072,-4.277353377443096 L 153.9424021852432,-5.996241051008229 L 147.98620559668947,-11.073023713137964 L 147.2666566705685,-8.160593569268734 A 247.1539194531124 247.1539194531124 0 0 0 121.27932906475164,-13.122437912410192"/><text text-anchor="middle" pointer-events="none" font-size="8px" fill="#000000" x="85.57113607298042" y="-11.86317439205314" transform="rotate(180 85.57113607298042 -14.86317439205314)" font-family="Helvetica Neue, Helvetica, Arial, sans-serif">PATIENT_COUNT</text></g><g class="relationship" transform="translate(-330.3053091327472 -111.15825217203506) rotate(356.0278583460033)"><path class="b-outline" fill="#A5ABB6" stroke="none" d="M 24.018736134675446,-6.953439040707552 L 24.277555179777966,-5.987513214418485 A 684.9227047098059 684.9227047098059 0 0 1 162.83280182180974,-28.23059265755637 L 162.7762760365003,-29.228993797176713 A 685.9227047098059 685.9227047098059 0 0 0 24.018736134675446,-6.953439040707552 Z M 234.2796857571965,-29.544306789249163 L 234.23196742107692,-28.545445957902757 A 684.9227047098059 684.9227047098059 0 0 1 372.97799501939846,-7.525199031812644 L 372.2271246003332,-4.620686402511003 L 379.88033622427986,-6.2572534922105945 L 373.9791555781522,-11.397882537548165 L 373.2282851590869,-8.493369908246525 A 685.9227047098059 685.9227047098059 0 0 0 234.2796857571965,-29.544306789249163"/><text text-anchor="middle" pointer-events="none" font-size="8px" fill="#000000" x="198.52607423113608" y="-26.819024166331815" font-family="Helvetica Neue, Helvetica, Arial, sans-serif">PATIENT_COUNT</text></g><g class="relationship" transform="translate(-330.3053091327472 -111.15825217203506) rotate(485.6397290898871)"><path class="b-outline" fill="#A5ABB6" stroke="none" d="M 6.953439040707552 24.018736134675446 L 17.306200844808384 62.65576918623819 A 17.916697508022974 17.916697508022974 0 1 1 -17.306200844808384 62.65576918623819 L -8.765172356425198 30.780216918698923 L -4.901469051268926 31.815493099109005 L -6.4704761275630185 24.148145657226706 L -11.662949835292403 30.00375978339136 L -7.79924653013613 31.039035963801442 L -16.340275018519314 62.91458823134071 A 16.916697508022974 16.916697508022974 0 1 0 16.340275018519314 62.91458823134071 L 5.987513214418485 24.277555179777966 Z"/><text text-anchor="middle" pointer-events="none" font-size="8px" fill="#000000" x="0" y="94.20964923467838" transform="rotate(180 0 91.20964923467838)" font-family="Helvetica Neue, Helvetica, Arial, sans-serif">PATIENT_…</text></g><g class="relationship" transform="translate(-337.6906509475003 66.90130683140539) rotate(311.72270741456697)"><path class="b-outline" fill="#A5ABB6" stroke="none" d="M 24.018736134675446,-6.953439040707552 L 24.277555179777966,-5.987513214418485 A 595.3467018255309 595.3467018255309 0 0 1 139.72134638590774,-25.017991028455185 L 139.65643752935944,-26.0158822251002 A 596.3467018255309 596.3467018255309 0 0 0 24.018736134675446,-6.953439040707552 Z M 211.15701714808068,-26.371170063806176 L 211.10202833537073,-25.37268309319677 A 595.3467018255309 595.3467018255309 0 0 1 326.729239794483,-7.490401805151766 L 325.98161852125673,-4.585051149582021 L 333.63299486968344,-6.230177276885451 L 327.7260681587847,-11.364202679244759 L 326.9784468855584,-8.458852023675014 A 596.3467018255309 596.3467018255309 0 0 0 211.15701714808068,-26.371170063806176"/><text text-anchor="middle" pointer-events="none" font-size="8px" fill="#000000" x="175.40388218661894" y="-23.7661042126349" font-family="Helvetica Neue, Helvetica, Arial, sans-serif">PATIENT_COUNT</text></g><g class="relationship" transform="translate(-337.6906509475003 66.90130683140539) rotate(333.3455295396134)"><path class="b-outline" fill="#A5ABB6" stroke="none" d="M 24.018736134675446,-6.953439040707552 L 24.277555179777966,-5.987513214418485 A 791.8414889000851 791.8414889000851 0 0 1 190.43904438358842,-32.01856666430763 L 190.39006719639943,-33.017366561752056 A 792.8414889000851 792.8414889000851 0 0 0 24.018736134675446,-6.953439040707552 Z M 261.8947550907288,-33.295322025011956 L 261.8535444044331,-32.296171546187566 A 791.8414889000851 791.8414889000851 0 0 1 428.2123866289565,-7.557702477647872 L 427.4584812973633,-4.653976121567587 L 435.1133990150761,-6.2825444299437 L 429.2175937377475,-11.429337619088251 L 428.4636884061543,-8.525611263007967 A 792.8414889000851 792.8414889000851 0 0 0 261.8947550907288,-33.295322025011956"/><text text-anchor="middle" pointer-events="none" font-size="8px" fill="#000000" x="226.14121960111532" y="-30.462871353199148" font-family="Helvetica Neue, Helvetica, Arial, sans-serif">PATIENT_COUNT</text></g><g class="relationship" transform="translate(-337.6906509475003 66.90130683140539) rotate(272.37508459240655)"><path class="b-outline" fill="#A5ABB6" stroke="none" d="M 24.018736134675446,-6.953439040707552 L 24.277555179777966,-5.987513214418485 A 246.1539194531124 246.1539194531124 0 0 1 50.05797580041703,-11.435292145109997 L 49.903889682898665,-12.423349566714677 A 247.1539194531124 247.1539194531124 0 0 0 24.018736134675446,-6.953439040707552 Z M 121.27932906475164,-13.122437912410192 L 121.14462575283352,-12.131551936246296 A 246.1539194531124 246.1539194531124 0 0 1 147.02680702852817,-7.189783521312325 L 146.3072581024072,-4.277353377443096 L 153.9424021852432,-5.996241051008229 L 147.98620559668947,-11.073023713137964 L 147.2666566705685,-8.160593569268734 A 247.1539194531124 247.1539194531124 0 0 0 121.27932906475164,-13.122437912410192"/><text text-anchor="middle" pointer-events="none" font-size="8px" fill="#000000" x="85.57113607298042" y="-11.86317439205314" font-family="Helvetica Neue, Helvetica, Arial, sans-serif">PATIENT_COUNT</text></g><g class="relationship" transform="translate(-337.6906509475003 66.90130683140539) rotate(370.4971454329792)"><path class="b-outline" fill="#A5ABB6" stroke="none" d="M 24.018736134675446,-6.953439040707552 L 24.277555179777966,-5.987513214418485 A 687.5120452223765 687.5120452223765 0 0 1 163.50113807465232,-28.322849799020105 L 163.44482251128858,-29.321262818427954 A 688.5120452223765 688.5120452223765 0 0 0 24.018736134675446,-6.953439040707552 Z M 234.9482840759399,-29.63555319167949 L 234.900747481508,-28.636683694602993 A 687.5120452223765 687.5120452223765 0 0 1 374.3152950887296,-7.526088963351592 L 373.564341574254,-4.621597817023761 L 381.2176000159071,-6.257945953963185 L 375.3165664413637,-11.398743825122033 L 374.5656129268881,-8.494252678794203 A 688.5120452223765 688.5120452223765 0 0 0 234.9482840759399,-29.63555319167949"/><text text-anchor="middle" pointer-events="none" font-size="8px" fill="#000000" x="199.19466824065535" y="-26.90727195783495" font-family="Helvetica Neue, Helvetica, Arial, sans-serif">PATIENT_COUNT</text></g><g class="relationship" transform="translate(-337.6906509475003 66.90130683140539) rotate(411.4361150126929)"><path class="b-outline" fill="#A5ABB6" stroke="none" d="M 6.953439040707552 24.018736134675446 L 17.306200844808384 62.65576918623819 A 17.916697508022974 17.916697508022974 0 1 1 -17.306200844808384 62.65576918623819 L -8.765172356425198 30.780216918698923 L -4.901469051268926 31.815493099109005 L -6.4704761275630185 24.148145657226706 L -11.662949835292403 30.00375978339136 L -7.79924653013613 31.039035963801442 L -16.340275018519314 62.91458823134071 A 16.916697508022974 16.916697508022974 0 1 0 16.340275018519314 62.91458823134071 L 5.987513214418485 24.277555179777966 Z"/><text text-anchor="middle" pointer-events="none" font-size="8px" fill="#000000" x="0" y="94.20964923467838" font-family="Helvetica Neue, Helvetica, Arial, sans-serif">PATIENT_…</text></g></g><g class="layer nodes"><g class="node" aria-label="graph-node0" transform="translate(-99.53592346365755,-200.18450947735113)" style="touch-action: none; -webkit-tap-highlight-color: rgba(0, 0, 0, 0);"><circle class="b-outline" cx="0" cy="0" r="25" fill="#8DCC93" stroke="#5db665" stroke-width="2px"/><text class="caption" text-anchor="middle" pointer-events="none" x="0" y="5" font-size="10px" fill="#2A2C34" font-family="Helvetica Neue, Helvetica, Arial, sans-serif"> 83</text></g><g class="node" aria-label="graph-node1" transform="translate(60.94589866717901,140.76368146696882)" style="touch-action: none; -webkit-tap-highlight-color: rgba(0, 0, 0, 0);"><circle class="b-outline" cx="0" cy="0" r="25" fill="#8DCC93" stroke="#5db665" stroke-width="2px"/><text class="caption" text-anchor="middle" pointer-events="none" x="0" y="5" font-size="10px" fill="#2A2C34" font-family="Helvetica Neue, Helvetica, Arial, sans-serif"> 9</text></g><g class="node" aria-label="graph-node2" transform="translate(72.8086268880231,-139.14977084396568)" style="touch-action: none; -webkit-tap-highlight-color: rgba(0, 0, 0, 0);"><circle class="b-outline" cx="0" cy="0" r="25" fill="#8DCC93" stroke="#5db665" stroke-width="2px"/><text class="caption" text-anchor="middle" pointer-events="none" x="0" y="5" font-size="10px" fill="#2A2C34" font-family="Helvetica Neue, Helvetica, Arial, sans-serif"> 7</text></g><g class="node" aria-label="graph-node3" transform="translate(-330.3053091327472,-111.15825217203506)" style="touch-action: none; -webkit-tap-highlight-color: rgba(0, 0, 0, 0);"><circle class="b-outline" cx="0" cy="0" r="25" fill="#8DCC93" stroke="#5db665" stroke-width="2px"/><text class="caption" text-anchor="middle" pointer-events="none" x="0" y="5" font-size="10px" fill="#2A2C34" font-family="Helvetica Neue, Helvetica, Arial, sans-serif"> 11117</text></g><g class="node" aria-label="graph-node4" transform="translate(-337.6906509475003,66.90130683140539)" style="touch-action: none; -webkit-tap-highlight-color: rgba(0, 0, 0, 0);"><circle class="b-outline" cx="0" cy="0" r="25" fill="#8DCC93" stroke="#5db665" stroke-width="2px"/><text class="caption" text-anchor="middle" pointer-events="none" x="0" y="5" font-size="10px" fill="#2A2C34" font-family="Helvetica Neue, Helvetica, Arial, sans-serif"> 328</text></g></g></svg>