<svg xmlns="http://www.w3.org/2000/svg" width="604.5631103515625" height="539.703369140625" viewBox="-383.43670654296875 -330.81707763671875 604.5631103515625 539.703369140625"><title>Neo4j Graph Visualization</title><desc>Created using Neo4j (http://www.neo4j.com/)</desc><g class="layer relationships"><g class="relationship" transform="translate(-103.5863521136117 -77.92638572772789) rotate(442.8395865285519)"><path class="b-outline" fill="#A5ABB6" stroke="none" d="M 25 0.5 L 98.08364395925378 0.5 L 98.08364395925378 -0.5 L 25 -0.5 Z M 154.75551895925378 0.5 L 227.83916291850755 0.5 L 227.83916291850755 3.5 L 234.83916291850755 0 L 227.83916291850755 -3.5 L 227.83916291850755 -0.5 L 154.75551895925378 -0.5 Z"/><text text-anchor="middle" pointer-events="none" font-size="8px" fill="#000000" x="126.41958145925378" y="3" font-family="Helvetica Neue, Helvetica, Arial, sans-serif">MEMBER_OF</text></g><g class="relationship" transform="translate(-103.5863521136117 -77.92638572772789) rotate(180.44894568614598)"><path class="b-outline" fill="#A5ABB6" stroke="none" d="M 24.018736134675446,-6.953439040707552 L 24.277555179777966,-5.987513214418485 A 387.7465922506084 387.7465922506084 0 0 1 72.82312412713459,-15.722603954318572 L 72.68950429697702,-16.71363661825484 A 388.7465922506084 388.7465922506084 0 0 0 24.018736134675446,-6.953439040707552 Z M 171.1543802789231,-17.406100000288802 L 171.03471203416305,-16.413286064449835 A 387.7465922506084 387.7465922506084 0 0 1 219.7123984346872,-7.361926894199872 L 218.97677386126426,-4.453515560331102 L 226.62129564261815,-6.130204778524483 L 220.69323119925113,-11.239808672691566 L 219.9576066258282,-8.331397338822796 A 388.7465922506084 388.7465922506084 0 0 0 171.1543802789231,-17.406100000288802"/><text text-anchor="middle" pointer-events="none" font-size="8px" fill="#000000" x="121.90344523838249" y="-16.690057484551176" transform="rotate(180 121.90344523838249 -19.690057484551176)" font-family="Helvetica Neue, Helvetica, Arial, sans-serif">NUMBER_OF_PATIENTS</text></g><g class="relationship" transform="translate(-103.5863521136117 -77.92638572772789) rotate(364.8044299190004)"><path class="b-outline" fill="#A5ABB6" stroke="none" d="M 24.018736134675446,6.953439040707552 L 24.277555179777966,5.987513214418485 A 476.8888137387795 476.8888137387795 0 0 0 95.71135108868589,19.394231555146348 L 95.60232334472309,20.388270262162507 A 477.8888137387795 477.8888137387795 0 0 1 24.018736134675446,6.953439040707552 Z M 194.13393653166986,20.976418659985484 L 194.03678323444845,19.981149230715687 A 476.8888137387795 476.8888137387795 0 0 0 265.6255361651459,7.428151642463451 L 264.88372757037763,4.521311432075557 L 272.53179808851235,6.181738289735481 L 266.6146142915035,11.30393858964731 L 265.87280569673527,8.397098379259415 A 477.8888137387795 477.8888137387795 0 0 1 194.13393653166986,20.976418659985484"/><text text-anchor="middle" pointer-events="none" font-size="8px" fill="#000000" x="144.85591555936998" y="25.728600906396366" font-family="Helvetica Neue, Helvetica, Arial, sans-serif">NUMBER_OF_PATIENTS</text></g><g class="relationship" transform="translate(-354.4367080304418 -79.89198408333866) rotate(384.02431694470386)"><path class="b-outline" fill="#A5ABB6" stroke="none" d="M 24.018736134675446,-6.953439040707552 L 24.277555179777966,-5.987513214418485 A 929.3404159780706 929.3404159780706 0 0 1 212.42547135760444,-36.17653644920313 L 212.36910548568045,-37.174946629681244 A 930.3404159780706 930.3404159780706 0 0 0 24.018736134675446,-6.953439040707552 Z M 310.9808142229393,-37.50756223546102 L 310.93118479782606,-36.50879453466018 A 929.3404159780706 929.3404159780706 0 0 1 499.27847170197026,-7.589683175961074 L 498.521580319268,-4.686733738786684 L 506.1781689524942,-6.307428189184944 L 500.2876602122399,-11.460282425526929 L 499.5307688295377,-8.557332988352538 A 930.3404159780706 930.3404159780706 0 0 0 310.9808142229393,-37.50756223546102"/><text text-anchor="middle" pointer-events="none" font-size="8px" fill="#000000" x="261.67223625092754" y="-35.148730626676866" font-family="Helvetica Neue, Helvetica, Arial, sans-serif">NUMBER_OF_PATIENTS</text></g><g class="relationship" transform="translate(-354.4367080304418 -79.89198408333866) rotate(367.6864160172104)"><path class="b-outline" fill="#A5ABB6" stroke="none" d="M 24.018736134675446,-6.953439040707552 L 24.277555179777966,-5.987513214418485 A 588.5078167375974 588.5078167375974 0 0 1 124.44931556495065,-23.72568898528789 L 124.36070965472283,-24.721755746440294 A 589.5078167375974 589.5078167375974 0 0 0 24.018736134675446,-6.953439040707552 Z M 222.93343870143147,-25.216352775371206 L 222.854832699878,-24.219447014268553 A 588.5078167375974 588.5078167375974 0 0 1 323.19955045359546,-7.4873796802691945 L 322.4522113702008,-4.581956424626254 L 330.1034278973281,-6.227825694955473 L 324.19600256478833,-11.361277354459782 L 323.4486634813937,-8.455854098816841 A 589.5078167375974 589.5078167375974 0 0 0 222.93343870143147,-25.216352775371206"/><text text-anchor="middle" pointer-events="none" font-size="8px" fill="#000000" x="173.6392268651109" y="-23.533016455415122" font-family="Helvetica Neue, Helvetica, Arial, sans-serif">NUMBER_OF_PATIENTS</text></g><g class="relationship" transform="translate(-354.4367080304418 -79.89198408333866) rotate(344.6856386585416)"><path class="b-outline" fill="#A5ABB6" stroke="none" d="M 24.018736134675446,6.953439040707552 L 24.277555179777966,5.987513214418485 A 509.36335956636765 509.36335956636765 0 0 0 104.06557794614086,20.67779153928211 L 103.96340154379592,21.672557834853023 A 510.36335956636765 510.36335956636765 0 0 1 24.018736134675446,6.953439040707552 Z M 202.51024427346863,22.230052566256006 L 202.4193291442949,21.23419392202618 A 509.36335956636765 509.36335956636765 0 0 0 282.368450132331,7.447573325667892 L 281.6248279955119,4.541196523250056 L 289.2739330274425,6.196851140159523 L 283.35994631475654,11.32274239555834 L 282.61632417793743,8.416365593140505 A 510.36335956636765 510.36335956636765 0 0 1 202.51024427346863,22.230052566256006"/><text text-anchor="middle" pointer-events="none" font-size="8px" fill="#000000" x="153.22616378195465" y="26.835490325839544" font-family="Helvetica Neue, Helvetica, Arial, sans-serif">NUMBER_OF_PATIENTS</text></g><g class="relationship" transform="translate(-354.4367080304418 -79.89198408333866) rotate(360.448945686146)"><path class="b-outline" fill="#A5ABB6" stroke="none" d="M 24.018736134675446,-6.953439040707552 L 24.277555179777966,-5.987513214418485 A 387.7465922506084 387.7465922506084 0 0 1 72.82312412713459,-15.722603954318572 L 72.68950429697702,-16.71363661825484 A 388.7465922506084 388.7465922506084 0 0 0 24.018736134675446,-6.953439040707552 Z M 171.1543802789231,-17.406100000288802 L 171.03471203416305,-16.413286064449835 A 387.7465922506084 387.7465922506084 0 0 1 219.7123984346872,-7.361926894199872 L 218.97677386126426,-4.453515560331102 L 226.62129564261815,-6.130204778524483 L 220.69323119925113,-11.239808672691566 L 219.9576066258282,-8.331397338822796 A 388.7465922506084 388.7465922506084 0 0 0 171.1543802789231,-17.406100000288802"/><text text-anchor="middle" pointer-events="none" font-size="8px" fill="#000000" x="121.90344523838249" y="-16.690057484551176" font-family="Helvetica Neue, Helvetica, Arial, sans-serif">NUMBER_OF_PATIENTS</text></g><g class="relationship" transform="translate(-354.4367080304418 -79.89198408333866) rotate(362.80929933426694)"><path class="b-outline" fill="#A5ABB6" stroke="none" d="M 24.018736134675446,6.953439040707552 L 24.277555179777966,5.987513214418485 A 961.9395304343806 961.9395304343806 0 0 0 220.84875207334224,37.33670728683944 L 220.79428183673997,38.335222681475216 A 962.9395304343806 962.9395304343806 0 0 1 24.018736134675446,6.953439040707552 Z M 319.40730676631955,38.65772488381867 L 319.3593686773595,37.65887457489998 A 961.9395304343806 961.9395304343806 0 0 0 516.1314062521424,7.596062899564623 L 515.3739191980986,4.693268838154787 L 523.0308402377726,6.312392117030975 L 517.1413889908673,11.466454981444404 L 516.3839019368236,8.563660920034568 A 962.9395304343806 962.9395304343806 0 0 1 319.40730676631955,38.65772488381867"/><text text-anchor="middle" pointer-events="none" font-size="8px" fill="#000000" x="270.0982983879895" y="42.25966107991189" font-family="Helvetica Neue, Helvetica, Arial, sans-serif">NUMBER_OF_PATIENTS</text></g><g class="relationship" transform="translate(-354.4367080304418 -79.89198408333866) rotate(379.8776694629357)"><path class="b-outline" fill="#A5ABB6" stroke="none" d="M 24.018736134675446,6.953439040707552 L 24.277555179777966,5.987513214418485 A 453.85244174915925 453.85244174915925 0 0 0 89.7895578140667,18.468720251130435 L 89.6750852494674,19.46214666106431 A 454.85244174915925 454.85244174915925 0 0 1 24.018736134675446,6.953439040707552 Z M 188.19355512377876,20.074147819801283 L 188.09143333638238,19.07937591602689 A 453.85244174915925 453.85244174915925 0 0 0 253.7534416680641,7.413027725679196 L 253.01304531501842,4.505827484829484 L 260.66030828888773,6.1699696087141795 L 254.7406368054584,11.289294713478814 L 254.0002404524127,8.3820944726291 A 454.85244174915925 454.85244174915925 0 0 1 188.19355512377876,20.074147819801283"/><text text-anchor="middle" pointer-events="none" font-size="8px" fill="#000000" x="138.92080745737843" y="24.94339379022142" font-family="Helvetica Neue, Helvetica, Arial, sans-serif">NUMBER_OF_PATIENTS</text></g><g class="relationship" transform="translate(-354.4367080304418 -79.89198408333866) rotate(438.7678862195288)"><path class="b-outline" fill="#A5ABB6" stroke="none" d="M 24.018736134675446,6.953439040707552 L 24.277555179777966,5.987513214418485 A 378.63229268018614 378.63229268018614 0 0 0 70.4878579964342,15.330829505863619 L 70.35108428056009,16.321431822964712 A 379.63229268018614 379.63229268018614 0 0 1 24.018736134675446,6.953439040707552 Z M 168.80602312583633,17.02665754309095 L 168.68345394400757,16.03419757127051 A 378.63229268018614 378.63229268018614 0 0 0 215.02285928124016,7.353808252771525 L 214.28799283594725,4.4452052706540695 L 221.9320773137297,6.123887044107635 L 216.00268120829736,11.231945562261467 L 215.26781476300445,8.323342580144011 A 379.63229268018614 379.63229268018614 0 0 1 168.80602312583633,17.02665754309095"/><text text-anchor="middle" pointer-events="none" font-size="8px" fill="#000000" x="119.55917565100344" y="22.379369927596827" font-family="Helvetica Neue, Helvetica, Arial, sans-serif">NUMBER_OF_PATIENTS</text></g><g class="relationship" transform="translate(-354.4367080304418 -79.89198408333866) rotate(381.93837947910475)"><path class="b-outline" fill="#A5ABB6" stroke="none" d="M 24.018736134675446,6.953439040707552 L 24.277555179777966,5.987513214418485 A 657.8251083713556 657.8251083713556 0 0 0 142.3218110294347,26.326924341373 L 142.2424382449681,27.323769344914695 A 658.8251083713556 658.8251083713556 0 0 1 24.018736134675446,6.953439040707552 Z M 240.829552151833,27.773842214053843 L 240.7592841398968,26.776314065830206 A 657.8251083713556 657.8251083713556 0 0 0 358.9843240115732,7.5155266615999095 L 358.23435673145923,4.610780703902682 L 365.8870591262191,6.249727334283401 L 359.9842803850586,11.38852127186288 L 359.2343131049446,8.483775314165651 A 658.8251083713556 658.8251083713556 0 0 1 240.829552151833,27.773842214053843"/><text text-anchor="middle" pointer-events="none" font-size="8px" fill="#000000" x="191.52984722859205" y="31.895500151369333" font-family="Helvetica Neue, Helvetica, Arial, sans-serif">NUMBER_OF_PATIENTS</text></g><g class="relationship selected" transform="translate(-354.4367080304418 -79.89198408333866) rotate(402.52613987287793)"><path class="b-outline" fill="#A5ABB6" stroke="none" d="M 25 0.5 L 160.32866165076425 0.5 L 160.32866165076425 -0.5 L 25 -0.5 Z M 217.00053665076425 0.5 L 352.3291983015285 0.5 L 352.3291983015285 3.5 L 359.3291983015285 0 L 352.3291983015285 -3.5 L 352.3291983015285 -0.5 L 217.00053665076425 -0.5 Z"/><text text-anchor="middle" pointer-events="none" font-size="8px" fill="#000000" x="188.66459915076425" y="3" font-family="Helvetica Neue, Helvetica, Arial, sans-serif">MEMBER_OF</text></g><g class="relationship" transform="translate(129.98826343419404 136.03430566943885) rotate(288.1899612762874)"><path class="b-outline" fill="#A5ABB6" stroke="none" d="M 24.018736134675446,6.953439040707552 L 24.277555179777966,5.987513214418485 A 286.86781998248233 286.86781998248233 0 0 0 47.062401436159405,11.108594053907723 L 46.883008679644334,12.092371589181766 A 287.86781998248233 287.86781998248233 0 0 1 24.018736134675446,6.953439040707552 Z M 145.1723631390293,12.957586855047623 L 145.01031670840158,11.970803720655454 A 286.86781998248233 286.86781998248233 0 0 0 167.8817841889067,7.25162337024356 L 167.1564601657222,4.340626107896608 L 174.79499847158033,6.044366859870872 L 168.84888288648602,11.132953053372827 L 168.12355886330153,8.221955791025877 A 287.86781998248233 287.86781998248233 0 0 1 145.1723631390293,12.957586855047623"/><text text-anchor="middle" pointer-events="none" font-size="8px" fill="#000000" x="95.99488528752563" y="19.251163988933115" font-family="Helvetica Neue, Helvetica, Arial, sans-serif">NUMBER_OF_PATIENTS</text></g><g class="relationship" transform="translate(129.98826343419404 136.03430566943885) rotate(204.02431694470386)"><path class="b-outline" fill="#A5ABB6" stroke="none" d="M 24.018736134675446,-6.953439040707552 L 24.277555179777966,-5.987513214418485 A 929.3404159780706 929.3404159780706 0 0 1 212.42547135760444,-36.17653644920313 L 212.36910548568045,-37.174946629681244 A 930.3404159780706 930.3404159780706 0 0 0 24.018736134675446,-6.953439040707552 Z M 310.9808142229393,-37.50756223546102 L 310.93118479782606,-36.50879453466018 A 929.3404159780706 929.3404159780706 0 0 1 499.27847170197026,-7.589683175961074 L 498.521580319268,-4.686733738786684 L 506.1781689524942,-6.307428189184944 L 500.2876602122399,-11.460282425526929 L 499.5307688295377,-8.557332988352538 A 930.3404159780706 930.3404159780706 0 0 0 310.9808142229393,-37.50756223546102"/><text text-anchor="middle" pointer-events="none" font-size="8px" fill="#000000" x="261.67223625092754" y="-35.148730626676866" transform="rotate(180 261.67223625092754 -38.148730626676866)" font-family="Helvetica Neue, Helvetica, Arial, sans-serif">NUMBER_OF_PATIENTS</text></g><g class="relationship" transform="translate(129.98826343419404 136.03430566943885) rotate(231.6599541190834)"><path class="b-outline" fill="#A5ABB6" stroke="none" d="M 24.018736134675446,6.953439040707552 L 24.277555179777966,5.987513214418485 A 317.71930712514546 317.71930712514546 0 0 0 54.916487396454926,12.596594686552805 L 54.754102315324914,13.583322149141338 A 318.71930712514546 318.71930712514546 0 0 1 24.018736134675446,6.953439040707552 Z M 153.11657968729278,14.387368861080859 L 152.9703468868793,13.398118656085558 A 317.71930712514546 317.71930712514546 0 0 0 183.7132271377533,7.290791977100601 L 182.98424533640372,4.380708553330569 L 190.6249187601083,6.074848344579898 L 184.68520287288607,11.170903208793977 L 183.95622107153648,8.260819785023944 A 318.71930712514546 318.71930712514546 0 0 1 153.11657968729278,14.387368861080859"/><text text-anchor="middle" pointer-events="none" font-size="8px" fill="#000000" x="103.90822219694351" y="20.30290497165771" transform="rotate(180 103.90822219694351 17.30290497165771)" font-family="Helvetica Neue, Helvetica, Arial, sans-serif">NUMBER_OF_PATIENTS</text></g><g class="relationship" transform="translate(129.98826343419404 136.03430566943885) rotate(209.79356485799087)"><path class="b-outline" fill="#A5ABB6" stroke="none" d="M 24.018736134675446,6.953439040707552 L 24.277555179777966,5.987513214418485 A 173.61590053017053 173.61590053017053 0 0 0 25.065437874560125,6.196644545474157 L 24.81115690858732,7.163774934999765 A 174.61590053017053 174.61590053017053 0 0 1 24.018736134675446,6.953439040707552 Z M 109.46721618409443,8.200006100211937 L 109.23668414610555,7.226941364718613 A 173.61590053017053 173.61590053017053 0 0 0 110.02944975076521,7.037157934370091 L 109.3241550250544,4.1212430950984595 L 116.95080016335082,5.877456047590127 L 110.96984271837964,10.925044386732267 L 110.26454799266882,8.009129547460635 A 174.61590053017053 174.61590053017053 0 0 1 109.46721618409443,8.200006100211937"/><text text-anchor="middle" pointer-events="none" font-size="8px" fill="#000000" x="67.08155346629229" y="15.390289188305815" transform="rotate(180 67.08155346629229 12.390289188305815)" font-family="Helvetica Neue, Helvetica, Arial, sans-serif">NUMBER_OF_PATI…</text></g><g class="relationship" transform="translate(129.98826343419404 136.03430566943885) rotate(527.7037234121101)"><path class="b-outline" fill="#A5ABB6" stroke="none" d="M 25 0.5 L 71.11903569365792 0.5 L 71.11903569365792 -0.5 L 25 -0.5 Z M 127.79091069365792 0.5 L 173.90994638731584 0.5 L 173.90994638731584 3.5 L 180.90994638731584 0 L 173.90994638731584 -3.5 L 173.90994638731584 -0.5 L 127.79091069365792 -0.5 Z"/><text text-anchor="middle" pointer-events="none" font-size="8px" fill="#000000" x="99.45497319365792" y="3" transform="rotate(180 99.45497319365792 0)" font-family="Helvetica Neue, Helvetica, Arial, sans-serif">MEMBER_OF</text></g><g class="relationship" transform="translate(192.12643040482547 -53.07166469070468) rotate(182.80929933426694)"><path class="b-outline" fill="#A5ABB6" stroke="none" d="M 24.018736134675446,6.953439040707552 L 24.277555179777966,5.987513214418485 A 961.9395304343806 961.9395304343806 0 0 0 220.84875207334224,37.33670728683944 L 220.79428183673997,38.335222681475216 A 962.9395304343806 962.9395304343806 0 0 1 24.018736134675446,6.953439040707552 Z M 319.40730676631955,38.65772488381867 L 319.3593686773595,37.65887457489998 A 961.9395304343806 961.9395304343806 0 0 0 516.1314062521424,7.596062899564623 L 515.3739191980986,4.693268838154787 L 523.0308402377726,6.312392117030975 L 517.1413889908673,11.466454981444404 L 516.3839019368236,8.563660920034568 A 962.9395304343806 962.9395304343806 0 0 1 319.40730676631955,38.65772488381867"/><text text-anchor="middle" pointer-events="none" font-size="8px" fill="#000000" x="270.0982983879895" y="42.25966107991189" transform="rotate(180 270.0982983879895 39.25966107991189)" font-family="Helvetica Neue, Helvetica, Arial, sans-serif">NUMBER_OF_PATIENTS</text></g><g class="relationship" transform="translate(192.12643040482547 -53.07166469070468) rotate(533.9915560103091)"><path class="b-outline" fill="#A5ABB6" stroke="none" d="M 24.018736134675446,-6.953439040707552 L 24.277555179777966,-5.987513214418485 A 281.9062250556328 281.9062250556328 0 0 1 45.80208493701944,-10.860663657185 L 45.61961940185801,-11.843875907148458 A 282.9062250556328 282.9062250556328 0 0 0 24.018736134675446,-6.953439040707552 Z M 143.89475199872075,-12.719785872740147 L 143.72984047430162,-11.73347750862996 A 281.9062250556328 281.9062250556328 0 0 1 165.3378110096334,-7.244759890819466 L 164.61312794342163,-4.33360299818281 L 172.2512909368209,-6.039025551764782 L 166.30405509791578,-11.126302414335008 L 165.579372031704,-8.215145521698352 A 282.9062250556328 282.9062250556328 0 0 0 143.89475199872075,-12.719785872740147"/><text text-anchor="middle" pointer-events="none" font-size="8px" fill="#000000" x="94.72331525731958" y="-13.082018585860055" transform="rotate(180 94.72331525731958 -16.082018585860055)" font-family="Helvetica Neue, Helvetica, Arial, sans-serif">NUMBER_OF_PATIENTS</text></g><g class="relationship" transform="translate(192.12643040482547 -53.07166469070468) rotate(230.9708107597002)"><path class="b-outline" fill="#A5ABB6" stroke="none" d="M 25 0.5 L 25.949481246830487 0.5 L 25.949481246830487 -0.5 L 25 -0.5 Z M 116.55494999683049 0.5 L 117.50443124366097 0.5 L 117.50443124366097 3.5 L 124.50443124366097 0 L 117.50443124366097 -3.5 L 117.50443124366097 -0.5 L 116.55494999683049 -0.5 Z"/><text text-anchor="middle" pointer-events="none" font-size="8px" fill="#000000" x="71.25221562183049" y="3" transform="rotate(180 71.25221562183049 0)" font-family="Helvetica Neue, Helvetica, Arial, sans-serif">NUMBER_OF_PATIE…</text></g><g class="relationship" transform="translate(192.12643040482547 -53.07166469070468) rotate(516.7098587820385)"><path class="b-outline" fill="#A5ABB6" stroke="none" d="M 24.018736134675446,-6.953439040707552 L 24.277555179777966,-5.987513214418485 A 953.4791728818021 953.4791728818021 0 0 1 218.66259057402561,-37.03593159234799 L 218.60764072808632,-38.03442070817812 A 954.4791728818021 954.4791728818021 0 0 0 24.018736134675446,-6.953439040707552 Z M 317.2203428130486,-38.35948816774476 L 317.1719769399165,-37.360658481403675 A 953.4791728818021 953.4791728818021 0 0 1 511.75748202563676,-7.594444756291746 L 511.0001460565627,-4.691611273305391 L 518.6569828141172,-6.311133075616729 L 512.7672633177355,-11.464889400273552 L 512.0099273486614,-8.562055917287198 A 954.4791728818021 954.4791728818021 0 0 0 317.2203428130486,-38.35948816774476"/><text text-anchor="middle" pointer-events="none" font-size="8px" fill="#000000" x="267.91143906482915" y="-35.971345116194925" transform="rotate(180 267.91143906482915 -38.971345116194925)" font-family="Helvetica Neue, Helvetica, Arial, sans-serif">NUMBER_OF_PATIENTS</text></g><g class="relationship" transform="translate(192.12643040482547 -53.07166469070468) rotate(204.17467789153648)"><path class="b-outline" fill="#A5ABB6" stroke="none" d="M 24.018736134675446,-6.953439040707552 L 24.277555179777966,-5.987513214418485 A 420.42949537981076 420.42949537981076 0 0 1 81.2056954013402,-17.099214735572446 L 81.08228108127994,-18.091569967132216 A 421.42949537981076 421.42949537981076 0 0 0 24.018736134675446,-6.953439040707552 Z M 179.57715696336354,-18.74179610255618 L 179.46685514119383,-17.747897964905178 A 420.42949537981076 420.42949537981076 0 0 1 236.536737715489,-7.388768525747313 L 235.7986066627536,-4.4809923051643565 L 243.4445707389718,-6.151092106128492 L 237.52091245246956,-11.265803486524588 L 236.78278139973415,-8.358027265941631 A 421.42949537981076 421.42949537981076 0 0 0 179.57715696336354,-18.74179610255618"/><text text-anchor="middle" pointer-events="none" font-size="8px" fill="#000000" x="130.31395800297787" y="-17.80412881636221" transform="rotate(180 130.31395800297787 -20.80412881636221)" font-family="Helvetica Neue, Helvetica, Arial, sans-serif">NUMBER_OF_PATIENTS</text></g><g class="relationship" transform="translate(192.12643040482547 -53.07166469070468) rotate(507.22641787471673)"><path class="b-outline" fill="#A5ABB6" stroke="none" d="M 24.018736134675446,-6.953439040707552 L 24.277555179777966,-5.987513214418485 A 327.09644388382605 327.09644388382605 0 0 1 57.30875409145222,-13.033012087257532 L 57.15091810357733,-14.020477428893116 A 328.09644388382605 328.09644388382605 0 0 0 24.018736134675446,-6.953439040707552 Z M 155.53135875248788,-14.8075775714276 L 155.38934253994165,-13.817713239625505 A 327.09644388382605 327.09644388382605 0 0 1 188.5290419960519,-7.30161963467692 L 187.7990490623889,-4.3917896883051295 L 195.44031069319658,-6.0832744471918385 L 189.50236590760258,-11.181392896505974 L 188.77237297393958,-8.271562950134184 A 328.09644388382605 328.09644388382605 0 0 0 155.53135875248788,-14.8075775714276"/><text text-anchor="middle" pointer-events="none" font-size="8px" fill="#000000" x="106.31546824015834" y="-14.622570172353505" transform="rotate(180 106.31546824015834 -17.622570172353505)" font-family="Helvetica Neue, Helvetica, Arial, sans-serif">NUMBER_OF_PATIENTS</text></g><g class="relationship" transform="translate(192.12643040482547 -53.07166469070468) rotate(525.889739831045)"><path class="b-outline" fill="#A5ABB6" stroke="none" d="M 24.018736134675446,-6.953439040707552 L 24.277555179777966,-5.987513214418485 A 458.57246056471354 458.57246056471354 0 0 1 91.00256632682026,-18.659475879632907 L 90.88925320910133,-19.653035207178448 A 459.57246056471354 459.57246056471354 0 0 0 24.018736134675446,-6.953439040707552 Z M 189.41059930011744,-20.259994149092677 L 189.30953633017882,-19.26511411808025 A 458.57246056471354 458.57246056471354 0 0 1 256.18561270793884,-7.416225618414661 L 255.444917740986,-4.509101443920093 L 263.09235160958497,-6.1724580579404495 L 257.1732059972093,-11.292391184407418 L 256.4325110302565,-8.38526700991285 A 459.57246056471354 459.57246056471354 0 0 0 189.41059930011744,-20.259994149092677"/><text text-anchor="middle" pointer-events="none" font-size="8px" fill="#000000" x="140.13669455402703" y="-19.104279316605016" transform="rotate(180 140.13669455402703 -22.104279316605016)" font-family="Helvetica Neue, Helvetica, Arial, sans-serif">NUMBER_OF_PATIENTS</text></g><g class="relationship" transform="translate(192.12643040482547 -53.07166469070468) rotate(468.1899612762874)"><path class="b-outline" fill="#A5ABB6" stroke="none" d="M 24.018736134675446,6.953439040707552 L 24.277555179777966,5.987513214418485 A 286.86781998248233 286.86781998248233 0 0 0 47.062401436159405,11.108594053907723 L 46.883008679644334,12.092371589181766 A 287.86781998248233 287.86781998248233 0 0 1 24.018736134675446,6.953439040707552 Z M 145.1723631390293,12.957586855047623 L 145.01031670840158,11.970803720655454 A 286.86781998248233 286.86781998248233 0 0 0 167.8817841889067,7.25162337024356 L 167.1564601657222,4.340626107896608 L 174.79499847158033,6.044366859870872 L 168.84888288648602,11.132953053372827 L 168.12355886330153,8.221955791025877 A 287.86781998248233 287.86781998248233 0 0 1 145.1723631390293,12.957586855047623"/><text text-anchor="middle" pointer-events="none" font-size="8px" fill="#000000" x="95.99488528752563" y="19.251163988933115" transform="rotate(180 95.99488528752563 16.251163988933115)" font-family="Helvetica Neue, Helvetica, Arial, sans-serif">NUMBER_OF_PATIENTS</text></g><g class="relationship" transform="translate(192.12643040482547 -53.07166469070468) rotate(184.80442991900043)"><path class="b-outline" fill="#A5ABB6" stroke="none" d="M 24.018736134675446,6.953439040707552 L 24.277555179777966,5.987513214418485 A 476.8888137387795 476.8888137387795 0 0 0 95.71135108868589,19.394231555146348 L 95.60232334472309,20.388270262162507 A 477.8888137387795 477.8888137387795 0 0 1 24.018736134675446,6.953439040707552 Z M 194.13393653166986,20.976418659985484 L 194.03678323444845,19.981149230715687 A 476.8888137387795 476.8888137387795 0 0 0 265.6255361651459,7.428151642463451 L 264.88372757037763,4.521311432075557 L 272.53179808851235,6.181738289735481 L 266.6146142915035,11.30393858964731 L 265.87280569673527,8.397098379259415 A 477.8888137387795 477.8888137387795 0 0 1 194.13393653166986,20.976418659985484"/><text text-anchor="middle" pointer-events="none" font-size="8px" fill="#000000" x="144.85591555936998" y="25.728600906396366" transform="rotate(180 144.85591555936998 22.728600906396366)" font-family="Helvetica Neue, Helvetica, Arial, sans-serif">NUMBER_OF_PATIENTS</text></g><g class="relationship" transform="translate(192.12643040482547 -53.07166469070468) rotate(498.50143958848616)"><path class="b-outline" fill="#A5ABB6" stroke="none" d="M 25 0.5 L 143.9545387667604 0.5 L 143.9545387667604 -0.5 L 25 -0.5 Z M 200.6264137667604 0.5 L 319.5809525335208 0.5 L 319.5809525335208 3.5 L 326.5809525335208 0 L 319.5809525335208 -3.5 L 319.5809525335208 -0.5 L 200.6264137667604 -0.5 Z"/><text text-anchor="middle" pointer-events="none" font-size="8px" fill="#000000" x="172.2904762667604" y="3" transform="rotate(180 172.2904762667604 0)" font-family="Helvetica Neue, Helvetica, Arial, sans-serif">MEMBER_OF</text></g><g class="relationship" transform="translate(-86.52309329187041 16.97330733015707) rotate(444.62604283327664)"><path class="b-outline" fill="#A5ABB6" stroke="none" d="M 25 0.5 L 49.98017379876494 0.5 L 49.98017379876494 -0.5 L 25 -0.5 Z M 106.65204879876494 0.5 L 131.63222259752987 0.5 L 131.63222259752987 3.5 L 138.63222259752987 0 L 131.63222259752987 -3.5 L 131.63222259752987 -0.5 L 106.65204879876494 -0.5 Z"/><text text-anchor="middle" pointer-events="none" font-size="8px" fill="#000000" x="78.31611129876494" y="3" font-family="Helvetica Neue, Helvetica, Arial, sans-serif">MEMBER_OF</text></g><g class="relationship" transform="translate(-86.52309329187041 16.97330733015707) rotate(345.88973983104495)"><path class="b-outline" fill="#A5ABB6" stroke="none" d="M 24.018736134675446,-6.953439040707552 L 24.277555179777966,-5.987513214418485 A 458.57246056471354 458.57246056471354 0 0 1 91.00256632682026,-18.659475879632907 L 90.88925320910133,-19.653035207178448 A 459.57246056471354 459.57246056471354 0 0 0 24.018736134675446,-6.953439040707552 Z M 189.41059930011744,-20.259994149092677 L 189.30953633017882,-19.26511411808025 A 458.57246056471354 458.57246056471354 0 0 1 256.18561270793884,-7.416225618414661 L 255.444917740986,-4.509101443920093 L 263.09235160958497,-6.1724580579404495 L 257.1732059972093,-11.292391184407418 L 256.4325110302565,-8.38526700991285 A 459.57246056471354 459.57246056471354 0 0 0 189.41059930011744,-20.259994149092677"/><text text-anchor="middle" pointer-events="none" font-size="8px" fill="#000000" x="140.13669455402703" y="-19.104279316605016" font-family="Helvetica Neue, Helvetica, Arial, sans-serif">NUMBER_OF_PATIENTS</text></g><g class="relationship" transform="translate(-86.52309329187041 16.97330733015707) rotate(199.87766946293573)"><path class="b-outline" fill="#A5ABB6" stroke="none" d="M 24.018736134675446,6.953439040707552 L 24.277555179777966,5.987513214418485 A 453.85244174915925 453.85244174915925 0 0 0 89.7895578140667,18.468720251130435 L 89.6750852494674,19.46214666106431 A 454.85244174915925 454.85244174915925 0 0 1 24.018736134675446,6.953439040707552 Z M 188.19355512377876,20.074147819801283 L 188.09143333638238,19.07937591602689 A 453.85244174915925 453.85244174915925 0 0 0 253.7534416680641,7.413027725679196 L 253.01304531501842,4.505827484829484 L 260.66030828888773,6.1699696087141795 L 254.7406368054584,11.289294713478814 L 254.0002404524127,8.3820944726291 A 454.85244174915925 454.85244174915925 0 0 1 188.19355512377876,20.074147819801283"/><text text-anchor="middle" pointer-events="none" font-size="8px" fill="#000000" x="138.92080745737843" y="24.94339379022142" transform="rotate(180 138.92080745737843 21.94339379022142)" font-family="Helvetica Neue, Helvetica, Arial, sans-serif">NUMBER_OF_PATIENTS</text></g><g class="relationship" transform="translate(7.408431189967434 65.85045574237925) rotate(484.57900918505834)"><path class="b-outline" fill="#A5ABB6" stroke="none" d="M 25 0.5 L 37.415677260523026 0.5 L 37.415677260523026 -0.5 L 25 -0.5 Z M 94.08755226052303 0.5 L 106.50322952104605 0.5 L 106.50322952104605 3.5 L 113.50322952104605 0 L 106.50322952104605 -3.5 L 106.50322952104605 -0.5 L 94.08755226052303 -0.5 Z"/><text text-anchor="middle" pointer-events="none" font-size="8px" fill="#000000" x="65.75161476052303" y="3" transform="rotate(180 65.75161476052303 0)" font-family="Helvetica Neue, Helvetica, Arial, sans-serif">MEMBER_OF</text></g><g class="relationship" transform="translate(7.408431189967434 65.85045574237925) rotate(389.7935648579909)"><path class="b-outline" fill="#A5ABB6" stroke="none" d="M 24.018736134675446,6.953439040707552 L 24.277555179777966,5.987513214418485 A 173.61590053017053 173.61590053017053 0 0 0 25.065437874560125,6.196644545474157 L 24.81115690858732,7.163774934999765 A 174.61590053017053 174.61590053017053 0 0 1 24.018736134675446,6.953439040707552 Z M 109.46721618409443,8.200006100211937 L 109.23668414610555,7.226941364718613 A 173.61590053017053 173.61590053017053 0 0 0 110.02944975076521,7.037157934370091 L 109.3241550250544,4.1212430950984595 L 116.95080016335082,5.877456047590127 L 110.96984271837964,10.925044386732267 L 110.26454799266882,8.009129547460635 A 174.61590053017053 174.61590053017053 0 0 1 109.46721618409443,8.200006100211937"/><text text-anchor="middle" pointer-events="none" font-size="8px" fill="#000000" x="67.08155346629229" y="15.390289188305815" font-family="Helvetica Neue, Helvetica, Arial, sans-serif">NUMBER_OF_PATI…</text></g><g class="relationship" transform="translate(7.408431189967434 65.85045574237925) rotate(327.22641787471673)"><path class="b-outline" fill="#A5ABB6" stroke="none" d="M 24.018736134675446,-6.953439040707552 L 24.277555179777966,-5.987513214418485 A 327.09644388382605 327.09644388382605 0 0 1 57.30875409145222,-13.033012087257532 L 57.15091810357733,-14.020477428893116 A 328.09644388382605 328.09644388382605 0 0 0 24.018736134675446,-6.953439040707552 Z M 155.53135875248788,-14.8075775714276 L 155.38934253994165,-13.817713239625505 A 327.09644388382605 327.09644388382605 0 0 1 188.5290419960519,-7.30161963467692 L 187.7990490623889,-4.3917896883051295 L 195.44031069319658,-6.0832744471918385 L 189.50236590760258,-11.181392896505974 L 188.77237297393958,-8.271562950134184 A 328.09644388382605 328.09644388382605 0 0 0 155.53135875248788,-14.8075775714276"/><text text-anchor="middle" pointer-events="none" font-size="8px" fill="#000000" x="106.31546824015834" y="-14.622570172353505" font-family="Helvetica Neue, Helvetica, Arial, sans-serif">NUMBER_OF_PATIENTS</text></g><g class="relationship" transform="translate(7.408431189967434 65.85045574237925) rotate(201.93837947910475)"><path class="b-outline" fill="#A5ABB6" stroke="none" d="M 24.018736134675446,6.953439040707552 L 24.277555179777966,5.987513214418485 A 657.8251083713556 657.8251083713556 0 0 0 142.3218110294347,26.326924341373 L 142.2424382449681,27.323769344914695 A 658.8251083713556 658.8251083713556 0 0 1 24.018736134675446,6.953439040707552 Z M 240.829552151833,27.773842214053843 L 240.7592841398968,26.776314065830206 A 657.8251083713556 657.8251083713556 0 0 0 358.9843240115732,7.5155266615999095 L 358.23435673145923,4.610780703902682 L 365.8870591262191,6.249727334283401 L 359.9842803850586,11.38852127186288 L 359.2343131049446,8.483775314165651 A 658.8251083713556 658.8251083713556 0 0 1 240.829552151833,27.773842214053843"/><text text-anchor="middle" pointer-events="none" font-size="8px" fill="#000000" x="191.52984722859205" y="31.895500151369333" transform="rotate(180 191.52984722859205 28.895500151369333)" font-family="Helvetica Neue, Helvetica, Arial, sans-serif">NUMBER_OF_PATIENTS</text></g><g class="relationship" transform="translate(-3.3049644999902212 -32.501876976293005) rotate(187.68641601721038)"><path class="b-outline" fill="#A5ABB6" stroke="none" d="M 24.018736134675446,-6.953439040707552 L 24.277555179777966,-5.987513214418485 A 588.5078167375974 588.5078167375974 0 0 1 124.44931556495065,-23.72568898528789 L 124.36070965472283,-24.721755746440294 A 589.5078167375974 589.5078167375974 0 0 0 24.018736134675446,-6.953439040707552 Z M 222.93343870143147,-25.216352775371206 L 222.854832699878,-24.219447014268553 A 588.5078167375974 588.5078167375974 0 0 1 323.19955045359546,-7.4873796802691945 L 322.4522113702008,-4.581956424626254 L 330.1034278973281,-6.227825694955473 L 324.19600256478833,-11.361277354459782 L 323.4486634813937,-8.455854098816841 A 589.5078167375974 589.5078167375974 0 0 0 222.93343870143147,-25.216352775371206"/><text text-anchor="middle" pointer-events="none" font-size="8px" fill="#000000" x="173.6392268651109" y="-23.533016455415122" transform="rotate(180 173.6392268651109 -26.533016455415122)" font-family="Helvetica Neue, Helvetica, Arial, sans-serif">NUMBER_OF_PATIENTS</text></g><g class="relationship" transform="translate(-3.3049644999902212 -32.501876976293005) rotate(411.6599541190834)"><path class="b-outline" fill="#A5ABB6" stroke="none" d="M 24.018736134675446,6.953439040707552 L 24.277555179777966,5.987513214418485 A 317.71930712514546 317.71930712514546 0 0 0 54.916487396454926,12.596594686552805 L 54.754102315324914,13.583322149141338 A 318.71930712514546 318.71930712514546 0 0 1 24.018736134675446,6.953439040707552 Z M 153.11657968729278,14.387368861080859 L 152.9703468868793,13.398118656085558 A 317.71930712514546 317.71930712514546 0 0 0 183.7132271377533,7.290791977100601 L 182.98424533640372,4.380708553330569 L 190.6249187601083,6.074848344579898 L 184.68520287288607,11.170903208793977 L 183.95622107153648,8.260819785023944 A 318.71930712514546 318.71930712514546 0 0 1 153.11657968729278,14.387368861080859"/><text text-anchor="middle" pointer-events="none" font-size="8px" fill="#000000" x="103.90822219694351" y="20.30290497165771" font-family="Helvetica Neue, Helvetica, Arial, sans-serif">NUMBER_OF_PATIENTS</text></g><g class="relationship" transform="translate(-3.3049644999902212 -32.501876976293005) rotate(353.99155601030907)"><path class="b-outline" fill="#A5ABB6" stroke="none" d="M 24.018736134675446,-6.953439040707552 L 24.277555179777966,-5.987513214418485 A 281.9062250556328 281.9062250556328 0 0 1 45.80208493701944,-10.860663657185 L 45.61961940185801,-11.843875907148458 A 282.9062250556328 282.9062250556328 0 0 0 24.018736134675446,-6.953439040707552 Z M 143.89475199872075,-12.719785872740147 L 143.72984047430162,-11.73347750862996 A 281.9062250556328 281.9062250556328 0 0 1 165.3378110096334,-7.244759890819466 L 164.61312794342163,-4.33360299818281 L 172.2512909368209,-6.039025551764782 L 166.30405509791578,-11.126302414335008 L 165.579372031704,-8.215145521698352 A 282.9062250556328 282.9062250556328 0 0 0 143.89475199872075,-12.719785872740147"/><text text-anchor="middle" pointer-events="none" font-size="8px" fill="#000000" x="94.72331525731958" y="-13.082018585860055" font-family="Helvetica Neue, Helvetica, Arial, sans-serif">NUMBER_OF_PATIENTS</text></g><g class="relationship" transform="translate(-3.3049644999902212 -32.501876976293005) rotate(467.7272478079591)"><path class="b-outline" fill="#A5ABB6" stroke="none" d="M 25 0.5 L 79.65195801314994 0.5 L 79.65195801314994 -0.5 L 25 -0.5 Z M 136.32383301314994 0.5 L 190.97579102629987 0.5 L 190.97579102629987 3.5 L 197.97579102629987 0 L 190.97579102629987 -3.5 L 190.97579102629987 -0.5 L 136.32383301314994 -0.5 Z"/><text text-anchor="middle" pointer-events="none" font-size="8px" fill="#000000" x="107.98789551314994" y="3" transform="rotate(180 107.98789551314994 0)" font-family="Helvetica Neue, Helvetica, Arial, sans-serif">MEMBER_OF</text></g><g class="relationship" transform="translate(-306.48661209405526 161.56333603404232) rotate(364.45289011095997)"><path class="b-outline" fill="#A5ABB6" stroke="none" d="M 25 0.5 L 86.16455784758796 0.5 L 86.16455784758796 -0.5 L 25 -0.5 Z M 142.83643284758796 0.5 L 204.00099069517591 0.5 L 204.00099069517591 3.5 L 211.00099069517591 0 L 204.00099069517591 -3.5 L 204.00099069517591 -0.5 L 142.83643284758796 -0.5 Z"/><text text-anchor="middle" pointer-events="none" font-size="8px" fill="#000000" x="114.50049534758796" y="3" font-family="Helvetica Neue, Helvetica, Arial, sans-serif">MEMBER_OF</text></g><g class="relationship" transform="translate(-306.48661209405526 161.56333603404232) rotate(336.7098587820385)"><path class="b-outline" fill="#A5ABB6" stroke="none" d="M 24.018736134675446,-6.953439040707552 L 24.277555179777966,-5.987513214418485 A 953.4791728818021 953.4791728818021 0 0 1 218.66259057402561,-37.03593159234799 L 218.60764072808632,-38.03442070817812 A 954.4791728818021 954.4791728818021 0 0 0 24.018736134675446,-6.953439040707552 Z M 317.2203428130486,-38.35948816774476 L 317.1719769399165,-37.360658481403675 A 953.4791728818021 953.4791728818021 0 0 1 511.75748202563676,-7.594444756291746 L 511.0001460565627,-4.691611273305391 L 518.6569828141172,-6.311133075616729 L 512.7672633177355,-11.464889400273552 L 512.0099273486614,-8.562055917287198 A 954.4791728818021 954.4791728818021 0 0 0 317.2203428130486,-38.35948816774476"/><text text-anchor="middle" pointer-events="none" font-size="8px" fill="#000000" x="267.91143906482915" y="-35.971345116194925" font-family="Helvetica Neue, Helvetica, Arial, sans-serif">NUMBER_OF_PATIENTS</text></g><g class="relationship" transform="translate(-306.48661209405526 161.56333603404232) rotate(258.7678862195288)"><path class="b-outline" fill="#A5ABB6" stroke="none" d="M 24.018736134675446,6.953439040707552 L 24.277555179777966,5.987513214418485 A 378.63229268018614 378.63229268018614 0 0 0 70.4878579964342,15.330829505863619 L 70.35108428056009,16.321431822964712 A 379.63229268018614 379.63229268018614 0 0 1 24.018736134675446,6.953439040707552 Z M 168.80602312583633,17.02665754309095 L 168.68345394400757,16.03419757127051 A 378.63229268018614 378.63229268018614 0 0 0 215.02285928124016,7.353808252771525 L 214.28799283594725,4.4452052706540695 L 221.9320773137297,6.123887044107635 L 216.00268120829736,11.231945562261467 L 215.26781476300445,8.323342580144011 A 379.63229268018614 379.63229268018614 0 0 1 168.80602312583633,17.02665754309095"/><text text-anchor="middle" pointer-events="none" font-size="8px" fill="#000000" x="119.55917565100344" y="22.379369927596827" transform="rotate(180 119.55917565100344 19.379369927596827)" font-family="Helvetica Neue, Helvetica, Arial, sans-serif">NUMBER_OF_PATIENTS</text></g><g class="relationship" transform="translate(97.98106432726394 -169.2104825235571) rotate(224.7978557504686)"><path class="b-outline" fill="#A5ABB6" stroke="none" d="M 25 0.5 L 62.26363907852313 0.5 L 62.26363907852313 -0.5 L 25 -0.5 Z M 118.93551407852313 0.5 L 156.19915315704625 0.5 L 156.19915315704625 3.5 L 163.19915315704625 0 L 156.19915315704625 -3.5 L 156.19915315704625 -0.5 L 118.93551407852313 -0.5 Z"/><text text-anchor="middle" pointer-events="none" font-size="8px" fill="#000000" x="90.59957657852313" y="3" transform="rotate(180 90.59957657852313 0)" font-family="Helvetica Neue, Helvetica, Arial, sans-serif">MEMBER_OF</text></g><g class="relationship" transform="translate(97.98106432726394 -169.2104825235571) rotate(537.5119740498825)"><path class="b-outline" fill="#A5ABB6" stroke="none" d="M 24.018736134675446,6.953439040707552 L 24.277555179777966,5.987513214418485 A 191.22583961074332 191.22583961074332 0 0 0 26.862334049211974,6.660790230997151 L 26.617031895313566,7.630236904771834 A 192.22583961074332 192.22583961074332 0 0 1 24.018736134675446,6.953439040707552 Z M 116.60983029781615,8.668999143395553 L 116.3869706344233,7.694148605911778 A 191.22583961074332 191.22583961074332 0 0 0 118.98660166605987,7.0807138137152625 L 118.27723899774041,4.165785923561767 L 125.90632718780459,5.911355569328788 L 119.93241855715247,10.967284333919922 L 119.22305588883302,8.052356443766428 A 192.22583961074332 192.22583961074332 0 0 1 116.60983029781615,8.668999143395553"/><text text-anchor="middle" pointer-events="none" font-size="8px" fill="#000000" x="71.55755291227739" y="15.990604716420847" transform="rotate(180 71.55755291227739 12.990604716420847)" font-family="Helvetica Neue, Helvetica, Arial, sans-serif">NUMBER_OF_PATIE…</text></g><g class="relationship" transform="translate(82.66498115640515 -267.48971845237475) rotate(196.19038479141926)"><path class="b-outline" fill="#A5ABB6" stroke="none" d="M 25 0.5 L 29.72008995703017 0.5 L 29.72008995703017 -0.5 L 25 -0.5 Z M 86.39196495703017 0.5 L 91.11205491406034 0.5 L 91.11205491406034 3.5 L 98.11205491406034 0 L 91.11205491406034 -3.5 L 91.11205491406034 -0.5 L 86.39196495703017 -0.5 Z"/><text text-anchor="middle" pointer-events="none" font-size="8px" fill="#000000" x="58.05602745703017" y="3" transform="rotate(180 58.05602745703017 0)" font-family="Helvetica Neue, Helvetica, Arial, sans-serif">MEMBER_OF</text></g><g class="relationship" transform="translate(82.66498115640515 -267.48971845237475) rotate(502.12453046040935)"><path class="b-outline" fill="#A5ABB6" stroke="none" d="M 24.018736134675446,6.953439040707552 L 24.277555179777966,5.987513214418485 A 231.44573127309292 231.44573127309292 0 0 0 33.0462444258312,8.154605456921956 L 32.8253119695105,9.129894567772737 A 232.44573127309292 232.44573127309292 0 0 1 24.018736134675446,6.953439040707552 Z M 130.89577151797064,10.131124911691785 L 130.69479706719807,9.151528428369886 A 231.44573127309292 231.44573127309292 0 0 0 139.50590294810667,7.163913516777693 L 138.7887700249435,4.250887534999396 L 146.42248572611658,5.97610769302662 L 140.46208017899093,11.047948159148754 L 139.74494725582775,8.134922177370457 A 232.44573127309292 232.44573127309292 0 0 1 130.89577151797064,10.131124911691785"/><text text-anchor="middle" pointer-events="none" font-size="8px" fill="#000000" x="81.81223912820894" y="17.361748391606767" transform="rotate(180 81.81223912820894 14.361748391606767)" font-family="Helvetica Neue, Helvetica, Arial, sans-serif">NUMBER_OF_PATIENTS</text></g><g class="relationship" transform="translate(-52.07473987740132 -162.690323768688) rotate(384.1746778915365)"><path class="b-outline" fill="#A5ABB6" stroke="none" d="M 24.018736134675446,-6.953439040707552 L 24.277555179777966,-5.987513214418485 A 420.42949537981076 420.42949537981076 0 0 1 81.2056954013402,-17.099214735572446 L 81.08228108127994,-18.091569967132216 A 421.42949537981076 421.42949537981076 0 0 0 24.018736134675446,-6.953439040707552 Z M 179.57715696336354,-18.74179610255618 L 179.46685514119383,-17.747897964905178 A 420.42949537981076 420.42949537981076 0 0 1 236.536737715489,-7.388768525747313 L 235.7986066627536,-4.4809923051643565 L 243.4445707389718,-6.151092106128492 L 237.52091245246956,-11.265803486524588 L 236.78278139973415,-8.358027265941631 A 421.42949537981076 421.42949537981076 0 0 0 179.57715696336354,-18.74179610255618"/><text text-anchor="middle" pointer-events="none" font-size="8px" fill="#000000" x="130.31395800297787" y="-17.80412881636221" font-family="Helvetica Neue, Helvetica, Arial, sans-serif">NUMBER_OF_PATIENTS</text></g><g class="relationship" transform="translate(-52.07473987740132 -162.690323768688) rotate(524.6856386585416)"><path class="b-outline" fill="#A5ABB6" stroke="none" d="M 24.018736134675446,6.953439040707552 L 24.277555179777966,5.987513214418485 A 509.36335956636765 509.36335956636765 0 0 0 104.06557794614086,20.67779153928211 L 103.96340154379592,21.672557834853023 A 510.36335956636765 510.36335956636765 0 0 1 24.018736134675446,6.953439040707552 Z M 202.51024427346863,22.230052566256006 L 202.4193291442949,21.23419392202618 A 509.36335956636765 509.36335956636765 0 0 0 282.368450132331,7.447573325667892 L 281.6248279955119,4.541196523250056 L 289.2739330274425,6.196851140159523 L 283.35994631475654,11.32274239555834 L 282.61632417793743,8.416365593140505 A 510.36335956636765 510.36335956636765 0 0 1 202.51024427346863,22.230052566256006"/><text text-anchor="middle" pointer-events="none" font-size="8px" fill="#000000" x="153.22616378195465" y="26.835490325839544" transform="rotate(180 153.22616378195465 23.835490325839544)" font-family="Helvetica Neue, Helvetica, Arial, sans-serif">NUMBER_OF_PATIENTS</text></g><g class="relationship" transform="translate(-52.07473987740132 -162.690323768688) rotate(357.5119740498825)"><path class="b-outline" fill="#A5ABB6" stroke="none" d="M 24.018736134675446,6.953439040707552 L 24.277555179777966,5.987513214418485 A 191.22583961074332 191.22583961074332 0 0 0 26.862334049211974,6.660790230997151 L 26.617031895313566,7.630236904771834 A 192.22583961074332 192.22583961074332 0 0 1 24.018736134675446,6.953439040707552 Z M 116.60983029781615,8.668999143395553 L 116.3869706344233,7.694148605911778 A 191.22583961074332 191.22583961074332 0 0 0 118.98660166605987,7.0807138137152625 L 118.27723899774041,4.165785923561767 L 125.90632718780459,5.911355569328788 L 119.93241855715247,10.967284333919922 L 119.22305588883302,8.052356443766428 A 192.22583961074332 192.22583961074332 0 0 1 116.60983029781615,8.668999143395553"/><text text-anchor="middle" pointer-events="none" font-size="8px" fill="#000000" x="71.55755291227739" y="15.990604716420847" font-family="Helvetica Neue, Helvetica, Arial, sans-serif">NUMBER_OF_PATIE…</text></g><g class="relationship" transform="translate(-52.07473987740132 -162.690323768688) rotate(322.12453046040935)"><path class="b-outline" fill="#A5ABB6" stroke="none" d="M 24.018736134675446,6.953439040707552 L 24.277555179777966,5.987513214418485 A 231.44573127309292 231.44573127309292 0 0 0 33.0462444258312,8.154605456921956 L 32.8253119695105,9.129894567772737 A 232.44573127309292 232.44573127309292 0 0 1 24.018736134675446,6.953439040707552 Z M 130.89577151797064,10.131124911691785 L 130.69479706719807,9.151528428369886 A 231.44573127309292 231.44573127309292 0 0 0 139.50590294810667,7.163913516777693 L 138.7887700249435,4.250887534999396 L 146.42248572611658,5.97610769302662 L 140.46208017899093,11.047948159148754 L 139.74494725582775,8.134922177370457 A 232.44573127309292 232.44573127309292 0 0 1 130.89577151797064,10.131124911691785"/><text text-anchor="middle" pointer-events="none" font-size="8px" fill="#000000" x="81.81223912820894" y="17.361748391606767" font-family="Helvetica Neue, Helvetica, Arial, sans-serif">NUMBER_OF_PATIENTS</text></g><g class="relationship" transform="translate(-52.07473987740132 -162.690323768688) rotate(276.7676649835617)"><path class="b-outline" fill="#A5ABB6" stroke="none" d="M 25 0.5 L 38.21553041605729 0.5 L 38.21553041605729 -0.5 L 25 -0.5 Z M 94.88740541605729 0.5 L 108.10293583211458 0.5 L 108.10293583211458 3.5 L 115.10293583211458 0 L 108.10293583211458 -3.5 L 108.10293583211458 -0.5 L 94.88740541605729 -0.5 Z"/><text text-anchor="middle" pointer-events="none" font-size="8px" fill="#000000" x="66.55146791605729" y="3" font-family="Helvetica Neue, Helvetica, Arial, sans-serif">MEMBER_OF</text></g></g><g class="layer nodes"><g class="node" aria-label="graph-node14179" transform="translate(-103.5863521136117,-77.92638572772789)" style="touch-action: none; -webkit-tap-highlight-color: rgba(0, 0, 0, 0);"><circle class="b-outline" cx="0" cy="0" r="25" fill="#F16667" stroke="#eb2728" stroke-width="2px"/><text class="caption" text-anchor="middle" pointer-events="none" x="0" y="5" font-size="10px" fill="#FFFFFF" font-family="Helvetica Neue, Helvetica, Arial, sans-serif"> 1740319…</text></g><g class="node" aria-label="graph-node41196" transform="translate(-71.19798859796909,179.88630692911028)" style="touch-action: none; -webkit-tap-highlight-color: rgba(0, 0, 0, 0);"><circle class="b-outline" cx="0" cy="0" r="25" fill="#D9C8AE" stroke="#c0a378" stroke-width="2px"/><text class="caption" text-anchor="middle" pointer-events="none" x="0" y="5" font-size="10px" fill="#2A2C34" font-family="Helvetica Neue, Helvetica, Arial, sans-serif"> 11117</text></g><g class="node" aria-label="graph-node15" transform="translate(-354.4367080304418,-79.89198408333866)" style="touch-action: none; -webkit-tap-highlight-color: rgba(0, 0, 0, 0);"><circle class="b-outline" cx="0" cy="0" r="25" fill="#F16667" stroke="#eb2728" stroke-width="2px"/><text class="caption" text-anchor="middle" pointer-events="none" x="0" y="5" font-size="10px" fill="#FFFFFF" font-family="Helvetica Neue, Helvetica, Arial, sans-serif"> 1396882…</text></g><g class="node" aria-label="graph-node4780" transform="translate(129.98826343419404,136.03430566943885)" style="touch-action: none; -webkit-tap-highlight-color: rgba(0, 0, 0, 0);"><circle class="b-outline" cx="0" cy="0" r="25" fill="#F16667" stroke="#eb2728" stroke-width="2px"/><text class="caption" text-anchor="middle" pointer-events="none" x="0" y="5" font-size="10px" fill="#FFFFFF" font-family="Helvetica Neue, Helvetica, Arial, sans-serif"> 1285091…</text></g><g class="node" aria-label="graph-node10" transform="translate(192.12643040482547,-53.07166469070468)" style="touch-action: none; -webkit-tap-highlight-color: rgba(0, 0, 0, 0);"><circle class="b-outline" cx="0" cy="0" r="25" fill="#F16667" stroke="#eb2728" stroke-width="2px"/><text class="caption" text-anchor="middle" pointer-events="none" x="0" y="5" font-size="10px" fill="#FFFFFF" font-family="Helvetica Neue, Helvetica, Arial, sans-serif"> 1104202…</text></g><g class="node" aria-label="graph-node14775" transform="translate(-86.52309329187041,16.97330733015707)" style="touch-action: none; -webkit-tap-highlight-color: rgba(0, 0, 0, 0);"><circle class="b-outline" cx="0" cy="0" r="25" fill="#F16667" stroke="#eb2728" stroke-width="2px"/><text class="caption" text-anchor="middle" pointer-events="none" x="0" y="5" font-size="10px" fill="#FFFFFF" font-family="Helvetica Neue, Helvetica, Arial, sans-serif"> 1972027…</text></g><g class="node" aria-label="graph-node13847" transform="translate(7.408431189967434,65.85045574237925)" style="touch-action: none; -webkit-tap-highlight-color: rgba(0, 0, 0, 0);"><circle class="b-outline" cx="0" cy="0" r="25" fill="#F16667" stroke="#eb2728" stroke-width="2px"/><text class="caption" text-anchor="middle" pointer-events="none" x="0" y="5" font-size="10px" fill="#FFFFFF" font-family="Helvetica Neue, Helvetica, Arial, sans-serif"> 1649637…</text></g><g class="node" aria-label="graph-node2638" transform="translate(-3.3049644999902212,-32.501876976293005)" style="touch-action: none; -webkit-tap-highlight-color: rgba(0, 0, 0, 0);"><circle class="b-outline" cx="0" cy="0" r="25" fill="#F16667" stroke="#eb2728" stroke-width="2px"/><text class="caption" text-anchor="middle" pointer-events="none" x="0" y="5" font-size="10px" fill="#FFFFFF" font-family="Helvetica Neue, Helvetica, Arial, sans-serif"> 1558408…</text></g><g class="node" aria-label="graph-node13119" transform="translate(-306.48661209405526,161.56333603404232)" style="touch-action: none; -webkit-tap-highlight-color: rgba(0, 0, 0, 0);"><circle class="b-outline" cx="0" cy="0" r="25" fill="#F16667" stroke="#eb2728" stroke-width="2px"/><text class="caption" text-anchor="middle" pointer-events="none" x="0" y="5" font-size="10px" fill="#FFFFFF" font-family="Helvetica Neue, Helvetica, Arial, sans-serif"> 1053449…</text></g><g class="node" aria-label="graph-node12135" transform="translate(97.98106432726394,-169.2104825235571)" style="touch-action: none; -webkit-tap-highlight-color: rgba(0, 0, 0, 0);"><circle class="b-outline" cx="0" cy="0" r="25" fill="#F16667" stroke="#eb2728" stroke-width="2px"/><text class="caption" text-anchor="middle" pointer-events="none" x="0" y="5" font-size="10px" fill="#FFFFFF" font-family="Helvetica Neue, Helvetica, Arial, sans-serif"> 1215979…</text></g><g class="node" aria-label="graph-node41199" transform="translate(-35.56451018391404,-301.8170463788534)" style="touch-action: none; -webkit-tap-highlight-color: rgba(0, 0, 0, 0);"><circle class="b-outline" cx="0" cy="0" r="25" fill="#D9C8AE" stroke="#c0a378" stroke-width="2px"/><text class="caption" text-anchor="middle" pointer-events="none" x="0" y="5" font-size="10px" fill="#2A2C34" font-family="Helvetica Neue, Helvetica, Arial, sans-serif"> 9</text></g><g class="node" aria-label="graph-node7085" transform="translate(82.66498115640515,-267.48971845237475)" style="touch-action: none; -webkit-tap-highlight-color: rgba(0, 0, 0, 0);"><circle class="b-outline" cx="0" cy="0" r="25" fill="#F16667" stroke="#eb2728" stroke-width="2px"/><text class="caption" text-anchor="middle" pointer-events="none" x="0" y="5" font-size="10px" fill="#FFFFFF" font-family="Helvetica Neue, Helvetica, Arial, sans-serif"> 1821030…</text></g><g class="node" aria-label="graph-node1202" transform="translate(-52.07473987740132,-162.690323768688)" style="touch-action: none; -webkit-tap-highlight-color: rgba(0, 0, 0, 0);"><circle class="b-outline" cx="0" cy="0" r="25" fill="#F16667" stroke="#eb2728" stroke-width="2px"/><text class="caption" text-anchor="middle" pointer-events="none" x="0" y="5" font-size="10px" fill="#FFFFFF" font-family="Helvetica Neue, Helvetica, Arial, sans-serif"> 1306889…</text></g></g></svg>